# xmcd
#
# Track frame offsets: 
#        150
#        19689
#        37644
#        52399
#        70111
#        86083
#        102604
#        122486
#        138045
#        155243
#        171638
#        185931
#
# Disc length: 2822 seconds
#
# Revision: 0
# Processed by: cddbd v1.5.2PL0 Copyright (c) Steve Scherf et al.
# Submitted via: ExactAudioCopy v1.0b3
#
DISCID=ad0b040c
DTITLE=Marina Koller - Neue Wege
DYEAR=2012
DGENRE=Country
TTITLE0=Nicht mein Tag
TTITLE1=Neue Wege
TTITLE2=Träume
TTITLE3=Du gehst mir nicht mehr aus dem Sinn
TTITLE4=Zeig mir den Weg zu dir
TTITLE5=Ich werd aus dir nicht klug
TTITLE6=Für die Kinder dieser Welt
TTITLE7=Nur mit Dir
TTITLE8=Jugendliebe
TTITLE9=Illusionen
TTITLE10=Mit Haut und Haar
TTITLE11=Sag mir niemals
EXTD=
EXTT0=
EXTT1=
EXTT2=
EXTT3=
EXTT4=
EXTT5=
EXTT6=
EXTT7=
EXTT8=
EXTT9=
EXTT10=
EXTT11=
PLAYORDER=
